<?xml version="1.0" encoding="UTF-8"?>
<!DOCTYPE svg PUBLIC "-//W3C//DTD SVG 1.1//EN" "http://www.w3.org/Graphics/SVG/1.1/DTD/svg11.dtd">
<!-- Creator: CorelDRAW -->
<svg xmlns="http://www.w3.org/2000/svg" xml:space="preserve" width="7.83333in" height="7.83333in" style="shape-rendering:geometricPrecision; text-rendering:geometricPrecision; image-rendering:optimizeQuality; fill-rule:evenodd; clip-rule:evenodd"
viewBox="0 0 7.83333 7.83333"
 xmlns:xlink="http://www.w3.org/1999/xlink">
 <defs>
  <style type="text/css">
   <![CDATA[
    .fil5 {fill:#62A8B1}
    .fil2 {fill:#80DEEA}
    .fil6 {fill:#87B2B6}
    .fil4 {fill:#B2EBF2}
    .fil7 {fill:#C09B9F}
    .fil0 {fill:#F9AD71}
    .fil3 {fill:#FFCDD2}
    .fil1 {fill:#413B32;fill-rule:nonzero}
   ]]>
  </style>
 </defs>
 <g id="Layer_x0020_1">
  <metadata id="CorelCorpID_0Corel-Layer"/>
  <circle class="fil0" cx="3.91667" cy="3.91667" r="3.91667"/>
  <g id="_348353920">
   <path id="_348355600" class="fil1" d="M1.47846 1.35667l4.8764 0c0.0441811,0 0.08,0.0358189 0.08,0.08l0 4.96c0,0.0441811 -0.0358189,0.08 -0.08,0.08l-4.8764 0c-0.0441811,0 -0.08,-0.0358189 -0.08,-0.08l0 -4.96c0,-0.0441811 0.0358189,-0.08 0.08,-0.08zm4.7964 0.16l-4.7164 0 0 4.8 4.7164 0 0 -4.8z"/>
   <path id="_348354400" class="fil1" d="M1.47846 2.30408c-0.0441811,0 -0.08,0.0358189 -0.08,0.08 0,0.0441811 0.0358189,0.08 0.08,0.08l4.8764 0c0.0441811,0 0.08,-0.0358189 0.08,-0.08 0,-0.0441811 -0.0358189,-0.08 -0.08,-0.08l-4.8764 0z"/>
   <path id="_348354256" class="fil1" d="M2.09504 2.30408l0.724953 0 0.702299 0c0.0441811,0 0.08,0.0358189 0.08,0.08l0 2.74123c0,0.0441811 -0.0358189,0.08 -0.08,0.08 -0.0250039,0 -0.0473307,-0.0114764 -0.062,-0.0294449l-0.65163 -0.695587 -0.655378 0.699594 0.000137795 0.000129921c-0.0302047,0.0322402 -0.0808346,0.0338937 -0.113075,0.00368898 -0.0168031,-0.0157441 -0.0252953,-0.0370354 -0.0252992,-0.0583819l-7.87402e-006 0 0 -2.74123c0,-0.0441811 0.0358189,-0.08 0.08,-0.08zm0.724953 0.16l-0.644953 0 0 2.4591 0.571567 -0.61013c0.00224409,-0.00275197 0.00469685,-0.00538976 0.0073622,-0.00788583 0.0322402,-0.0302047 0.0828701,-0.0285512 0.113075,0.00368898l-0.000137795 0.000129921 0.575386 0.614197 0 -2.4591 -0.622299 0z"/>
   <polygon id="_348354136" class="fil2" points="2.09504,2.30408 2.82,2.30408 3.5223,2.30408 6.27487,2.30408 6.27487,1.51667 1.55846,1.51667 1.55846,2.30408 "/>
   <path id="_348354448" class="fil3" d="M2.82 2.46408l-0.644953 0 0 2.4591 0.571567 -0.61013c0.00224409,-0.00275197 0.00469685,-0.00538976 0.0073622,-0.00788583 0.0322402,-0.0302047 0.0828701,-0.0285512 0.113075,0.00368898l-0.000137795 0.000129921 0.575386 0.614197 0 -2.4591 -0.622299 0z"/>
   <path id="_348354544" class="fil4" d="M2.01505 5.12531l0 0zm1.58724 -2.66123l0 2.66123c0,0.0441811 -0.0358189,0.08 -0.08,0.08 -0.0250039,0 -0.0473307,-0.0114764 -0.062,-0.0294449l-0.65163 -0.695587 -0.655378 0.699594 0.000137795 0.000129921c-0.0302047,0.0322402 -0.0808346,0.0338937 -0.113075,0.00368898 -0.0168031,-0.0157441 -0.0252953,-0.0370354 -0.0253071,-0.0583819l0 -2.66123 -0.456579 0 0 3.85258 4.7164 0 0 -3.85258 -2.67257 0z"/>
   <polygon id="_348354376" class="fil5" points="5.80986,1.51667 5.80986,2.30408 6.27487,2.30408 6.27487,1.51667 "/>
   <polygon id="_348354808" class="fil6" points="6.27487,2.46408 5.80986,2.46408 5.80986,6.31667 6.27487,6.31667 "/>
   <polygon id="_348354496" class="fil7" points="3.24396,2.46408 3.24396,4.71147 3.4423,4.92318 3.4423,2.46408 "/>
  </g>
 </g>
</svg>
